<svg width="181" height="45" viewBox="0 0 181 45" fill="none" xmlns="http://www.w3.org/2000/svg">
<g clip-path="url(#clip0_20_81)">
<path d="M56.6264 21.9998C56.6302 22.9643 56.4371 23.9196 56.0585 24.8082C55.68 25.6969 55.1239 26.5006 54.4236 27.1711C53.7234 27.8416 52.8934 28.365 51.9837 28.7098C51.074 29.0547 50.1032 29.2139 49.1298 29.1778H40.2217V5.59732H46.7234C50.8265 5.59732 53.6108 8.52198 53.6108 11.6528C53.6108 14.1957 51.8215 15.8985 50.9345 15.8985C52.4961 15.9891 53.9615 16.6753 55.0229 17.813C56.0843 18.9507 56.659 20.4514 56.6264 21.9998ZM43.9392 9.19396V15.0585H46.8931C47.3013 15.0889 47.7113 15.0359 48.098 14.9031C48.4847 14.7702 48.8397 14.5602 49.1412 14.2861C49.4426 14.012 49.6841 13.6796 49.8506 13.3094C50.0171 12.9392 50.1051 12.5391 50.1093 12.1339C50.0791 11.3304 49.7302 10.5711 49.1382 10.0208C48.5462 9.47039 47.7589 9.1733 46.9471 9.19396H43.9392ZM52.9629 21.7478C52.9629 19.961 51.4204 18.3268 48.721 18.3268H43.9392V25.5507H48.7827C49.8474 25.5962 50.8867 25.2211 51.6721 24.508C52.4575 23.7948 52.9246 22.802 52.9707 21.7478H52.9629Z" fill="#1479FF"/>
<path d="M74.1496 25.5965H62.8738L61.2464 29.1778H57.1973L68.4037 5.1315H68.6197L79.8261 29.2007H75.777L74.1496 25.5965ZM72.6997 22.4198L68.5194 13.2029L64.3237 22.4198H72.6997Z" fill="#1479FF"/>
<path d="M95.5672 29.1778L89.1502 20.0144H86.2272V29.1778H82.502V5.59732H89.9061C91.9822 5.55624 93.9905 6.32953 95.4931 7.74855C96.9956 9.16758 97.8706 11.1172 97.9272 13.1724C97.9396 14.6188 97.4908 16.0321 96.6447 17.2112C95.7986 18.3904 94.5983 19.2751 93.2148 19.7395L100.156 29.1778H95.5672ZM89.9601 16.96C91.0198 16.9727 92.0427 16.575 92.8106 15.8518C93.5785 15.1286 94.0308 14.137 94.0709 13.0884C94.055 12.5689 93.9354 12.0576 93.7191 11.5841C93.5027 11.1105 93.1939 10.684 92.8104 10.3291C92.4268 9.9742 91.9762 9.69794 91.4843 9.51623C90.9925 9.33452 90.4692 9.25095 89.9446 9.27032H86.1963V16.9829L89.9601 16.96Z" fill="#1479FF"/>
<path d="M119.076 21.9998C119.081 22.9639 118.888 23.9191 118.511 24.8077C118.133 25.6963 117.578 26.5001 116.878 27.1707C116.178 27.8413 115.349 28.3648 114.44 28.7097C113.53 29.0547 112.56 29.2139 111.587 29.1778H102.671V5.59732H109.173C113.283 5.59732 116.06 8.52198 116.06 11.6528C116.06 14.1957 114.271 15.8985 113.384 15.8985C114.945 15.9891 116.411 16.6753 117.472 17.813C118.534 18.9507 119.108 20.4514 119.076 21.9998ZM106.412 9.19396V15.0585H109.365C109.774 15.0889 110.184 15.0359 110.57 14.9031C110.957 14.7702 111.312 14.5602 111.614 14.2861C111.915 14.012 112.156 13.6796 112.323 13.3094C112.489 12.9392 112.578 12.5391 112.582 12.1339C112.551 11.3304 112.203 10.5711 111.611 10.0208C111.019 9.47039 110.231 9.17331 109.419 9.19396H106.412ZM115.443 21.7478C115.443 19.961 113.9 18.3268 111.201 18.3268H106.412V25.5507H111.263C112.324 25.59 113.357 25.2121 114.137 24.4996C114.918 23.7871 115.381 22.7978 115.428 21.7478H115.443Z" fill="#1479FF"/>
<path d="M125.786 9.23978V15.28H134.802V18.9683H125.786V25.4972H136.236V29.1778H122.045V5.59732H136.236V9.23978H125.786Z" fill="#1479FF"/>
<path d="M153.211 29.1778L146.802 20.0144H143.871V29.1778H140.131V5.59732H147.535C149.618 5.54598 151.637 6.31446 153.15 7.73437C154.662 9.15427 155.544 11.1098 155.602 13.1724C155.615 14.6188 155.166 16.0321 154.32 17.2112C153.474 18.3904 152.274 19.2751 150.89 19.7395L157.831 29.1778H153.211ZM147.612 16.96C148.677 16.9766 149.706 16.5786 150.478 15.8517C151.249 15.1248 151.702 14.1271 151.738 13.0731C151.721 12.5539 151.601 12.0431 151.385 11.57C151.168 11.0969 150.859 10.6708 150.476 10.3161C150.092 9.96145 149.642 9.68514 149.151 9.50306C148.659 9.32097 148.136 9.23669 147.612 9.25505H143.856V16.9676L147.612 16.96Z" fill="#1479FF"/>
<path d="M175.323 25.5965H164.048L162.42 29.1778H158.371L169.57 5.13151H169.793L181 29.2007H176.951L175.323 25.5965ZM173.873 22.4198L169.693 13.203L165.498 22.4198H173.873Z" fill="#1479FF"/>
<path d="M19.9144 16.0665C21.295 16.0665 24.087 13.4168 24.087 9.44595C24.087 4.5588 19.7525 0 13.3433 0H3.20117V23.0231C3.20117 26.6685 4.66381 30.1646 7.26733 32.7424C9.87085 35.3201 13.402 36.7682 17.0839 36.7682C24.4649 36.7682 28.7685 31.1938 28.7685 25.5583C28.7685 19.9228 24.087 16.0665 19.9144 16.0665ZM9.00878 5.61259H13.6903C14.9574 5.57349 16.1884 6.03415 17.1125 6.89331C18.0367 7.75246 18.5784 8.9398 18.6187 10.1943C18.6187 12.8135 16.4977 14.776 13.6209 14.776H8.99336L9.00878 5.61259ZM21.3953 29.6666C20.0147 30.9876 18.5339 32.2018 16.9991 33.5534C16.9991 32.8967 16.9991 32.3698 16.9991 31.8505C16.9991 31.5451 16.8988 31.4763 16.6134 31.4611C15.7903 31.4097 14.9857 31.1975 14.2458 30.8367C13.506 30.4758 12.8456 29.9736 12.3028 29.3588C11.7601 28.744 11.3456 28.0289 11.0834 27.2547C10.8211 26.4805 10.7163 25.6626 10.775 24.8481C10.8777 23.3397 11.5335 21.9203 12.6191 20.857C13.7047 19.7937 15.1452 19.1598 16.6698 19.0744C18.1944 18.9891 19.698 19.4581 20.8977 20.3935C22.0975 21.3288 22.9108 22.6658 23.1846 24.1532C23.3907 25.147 23.3343 26.1766 23.0208 27.1424C22.7074 28.1083 22.1475 28.9777 21.3953 29.6666Z" fill="#1479FF"/>
<path d="M32.1308 35.8748C31.7341 35.4631 31.193 35.2178 30.619 35.1894C30.045 35.1609 29.4819 35.3516 29.0457 35.722C23.4541 40.3037 17.4305 41.6706 11.1139 39.647C8.39294 38.7455 5.84916 37.3868 3.59405 35.6304C3.16456 35.2984 2.62745 35.1331 2.08355 35.1654C1.53965 35.1977 1.02638 35.4255 0.64011 35.806C0.415376 36.0275 0.240784 36.2938 0.127916 36.5872C0.0150483 36.8806 -0.033515 37.1945 -0.0145516 37.5079C0.00441172 37.8213 0.090468 38.1271 0.237908 38.4051C0.385348 38.683 0.590802 38.9268 0.840639 39.1201C3.46273 41.1597 6.41468 42.745 9.57134 43.8088C11.8909 44.5798 14.3205 44.9768 16.7672 44.9847C21.31 44.9847 26.5623 43.5568 31.938 39.1125C32.173 38.9174 32.3654 38.6769 32.5032 38.4056C32.6411 38.1343 32.7215 37.838 32.7396 37.5348C32.7576 37.2316 32.7129 36.928 32.6082 36.6426C32.5036 36.3571 32.3411 36.0958 32.1308 35.8748Z" fill="#1479FF"/>
<path d="M18.5331 26.2837C18.4483 26.2837 18.4329 26.2837 18.3943 26.2379C17.4637 24.5681 16.5279 22.8958 15.5869 21.2209C15.5587 21.1587 15.5133 21.1058 15.4558 21.0682H15.3401C15.0143 21.2518 14.772 21.552 14.663 21.9071C14.5539 22.2622 14.5865 22.6452 14.754 22.9772C15.0008 23.5194 15.2553 24.054 15.5252 24.5885C15.7952 25.123 16.0728 25.7568 16.3505 26.3372C16.3916 26.436 16.4626 26.5199 16.5537 26.5773C16.6448 26.6347 16.7516 26.6628 16.8595 26.6579H16.9443C17.006 26.6579 17.0292 26.6579 17.0523 26.7266C17.2914 27.2459 17.5305 27.7575 17.7773 28.2538C17.9113 28.54 18.1316 28.7781 18.4078 28.9353C18.684 29.0926 19.0026 29.1613 19.3198 29.132C19.5461 29.1126 19.7653 29.0439 19.9617 28.9308C20.1581 28.8178 20.3269 28.6632 20.456 28.4781C20.585 28.293 20.6712 28.082 20.7083 27.8601C20.7454 27.6382 20.7326 27.4109 20.6707 27.1945C20.6089 26.9781 20.4995 26.7779 20.3504 26.6082C20.2013 26.4385 20.0162 26.3035 19.8083 26.2128C19.6004 26.1222 19.3748 26.0781 19.1477 26.0837C18.9206 26.0894 18.6976 26.1446 18.4946 26.2455L18.5331 26.2837ZM16.9906 25.8408C16.9279 25.8369 16.869 25.8095 16.826 25.7641C16.783 25.7187 16.7591 25.6587 16.7592 25.5965C16.7592 25.5337 16.7844 25.4735 16.8293 25.4291C16.8741 25.3847 16.9349 25.3597 16.9983 25.3597C17.0617 25.3597 17.1226 25.3847 17.1674 25.4291C17.2122 25.4735 17.2374 25.5337 17.2374 25.5965C17.2386 25.6295 17.2327 25.6624 17.2202 25.6931C17.2077 25.7238 17.1889 25.7515 17.1649 25.7745C17.1409 25.7976 17.1123 25.8154 17.081 25.8268C17.0496 25.8382 17.0162 25.843 16.9829 25.8408H16.9906ZM19.9754 27.6582C19.9754 27.8608 19.8941 28.055 19.7495 28.1982C19.6049 28.3414 19.4087 28.4218 19.2041 28.4218C18.9996 28.4218 18.8034 28.3414 18.6588 28.1982C18.5141 28.055 18.4329 27.8608 18.4329 27.6582C18.4329 27.4557 18.5141 27.2615 18.6588 27.1183C18.8034 26.9751 18.9996 26.8946 19.2041 26.8946C19.4087 26.8946 19.6049 26.9751 19.7495 27.1183C19.8941 27.2615 19.9754 27.4557 19.9754 27.6582Z" fill="#1479FF"/>
<path d="M18.2402 24.9856L18.2865 25.0467C18.6104 24.3594 18.9344 23.6798 19.2506 22.9925C19.3962 22.6957 19.429 22.3569 19.3431 22.038C19.2939 21.8342 19.1991 21.644 19.0656 21.4814C18.9321 21.3188 18.7633 21.1881 18.5719 21.0988H18.487C18.4288 21.1439 18.3814 21.2013 18.3482 21.2668L17.2607 23.2063C17.2492 23.2261 17.2432 23.2485 17.2432 23.2713C17.2432 23.294 17.2492 23.3164 17.2607 23.3362C17.6155 23.8631 17.9317 24.4205 18.2402 24.9856Z" fill="#1479FF"/>
<path d="M16.6744 27.139C16.5053 27.116 16.3451 27.0497 16.2098 26.9466C16.0745 26.8434 15.9688 26.7071 15.9032 26.551C15.8338 26.4059 15.7643 26.2608 15.6949 26.1005C15.6609 26.148 15.6324 26.1992 15.6101 26.2532C15.6101 26.3143 15.5561 26.3219 15.4944 26.2914C15.2386 26.1689 14.9535 26.1187 14.6707 26.1465C14.3879 26.1742 14.1183 26.2788 13.8917 26.4486C13.6652 26.6184 13.4904 26.8469 13.3867 27.1089C13.2829 27.3709 13.2543 27.6561 13.304 27.9331C13.3622 28.2444 13.5165 28.5301 13.7458 28.7507C13.9751 28.9713 14.2679 29.1159 14.5838 29.1645C14.8997 29.2131 15.2231 29.1634 15.5092 29.0221C15.7953 28.8809 16.03 28.6551 16.1808 28.376C16.3736 27.9866 16.551 27.6124 16.7361 27.1924C16.7207 27.1619 16.7207 27.1466 16.6744 27.139ZM14.7925 28.4219C14.64 28.4219 14.4909 28.3771 14.3641 28.2932C14.2372 28.2093 14.1384 28.09 14.08 27.9505C14.0216 27.8109 14.0063 27.6574 14.0361 27.5093C14.0659 27.3611 14.1393 27.2251 14.2472 27.1183C14.355 27.0115 14.4925 26.9388 14.6421 26.9093C14.7917 26.8798 14.9468 26.895 15.0877 26.9528C15.2286 27.0106 15.3491 27.1084 15.4338 27.234C15.5186 27.3596 15.5638 27.5072 15.5638 27.6582C15.5638 27.8608 15.4826 28.055 15.3379 28.1982C15.1933 28.3414 14.9971 28.4219 14.7925 28.4219Z" fill="#1479FF"/>
</g>
<defs>
<clipPath id="clip0_20_81">
<rect width="181" height="45" fill="white"/>
</clipPath>
</defs>
</svg>
